<?xml version="1.0" encoding="UTF-8" standalone="no"?>
<!-- Created with Inkscape (http://www.inkscape.org/) -->

<svg
   version="1.1"
   id="svg1"
   width="256"
   height="256"
   viewBox="0 0 256 256"
   sodipodi:docname="icon_settings_controller-type.svg"
   xml:space="preserve"
   inkscape:export-filename="icon_settings_controller-type.png"
   inkscape:export-xdpi="96"
   inkscape:export-ydpi="96"
   inkscape:version="1.4.2 (ebf0e940d0, 2025-05-08)"
   xmlns:inkscape="http://www.inkscape.org/namespaces/inkscape"
   xmlns:sodipodi="http://sodipodi.sourceforge.net/DTD/sodipodi-0.dtd"
   xmlns="http://www.w3.org/2000/svg"
   xmlns:svg="http://www.w3.org/2000/svg"><defs
     id="defs1"><inkscape:path-effect
       effect="spiro"
       id="path-effect3501"
       is_visible="true"
       lpeversion="1" /><inkscape:path-effect
       effect="spiro"
       id="path-effect891"
       is_visible="true"
       lpeversion="1" /></defs><sodipodi:namedview
     id="namedview1"
     pagecolor="#ffffff"
     bordercolor="#000000"
     borderopacity="0.25"
     inkscape:showpageshadow="2"
     inkscape:pageopacity="0.0"
     inkscape:pagecheckerboard="0"
     inkscape:deskcolor="#d1d1d1"
     inkscape:zoom="3.8984376"
     inkscape:cx="132.74549"
     inkscape:cy="118.38076"
     inkscape:window-width="2494"
     inkscape:window-height="1531"
     inkscape:window-x="0"
     inkscape:window-y="0"
     inkscape:window-maximized="1"
     inkscape:current-layer="g1" /><g
     inkscape:groupmode="layer"
     inkscape:label="Image"
     id="g1"><path
       id="path1"
       style="fill:#c5c4c5;fill-opacity:1;stroke:none;stroke-width:0.845189;stroke-linecap:round;stroke-linejoin:round;stroke-opacity:1"
       d="M 209.99917,6 C 187.90834,6.0002198 170.00023,23.908697 170,46 c 2.3e-4,22.091296 17.90834,39.999772 39.99917,40 C 232.09066,86.000685 249.99978,68.091938 250,46 249.99978,23.908054 232.09066,5.9993154 209.99917,6 Z m -0.71476,9.577813 c 3.59559,0 6.54456,0.477774 8.84798,1.432873 2.3596,0.9551 4.18501,2.190729 5.47718,3.707648 1.34834,1.46074 2.27587,3.062111 2.78149,4.803761 0.56181,1.685469 0.84188,3.314851 0.84188,4.887959 0,2.191102 -0.50576,4.184586 -1.51704,5.982416 -0.95507,1.741649 -2.16266,3.343022 -3.62338,4.80376 -1.4607,1.46074 -2.94837,2.866068 -4.46525,4.214439 -1.46072,1.348379 -2.69797,2.72404 -3.70923,4.1286 -0.95507,1.40455 -1.43119,2.921909 -1.43119,4.55119 H 201.9518 c -0.0562,-0.28091 -0.0842,-0.534631 -0.0842,-0.759352 v -0.673522 c 0,-2.415838 0.42176,-4.494984 1.26447,-6.236643 0.8989,-1.797829 1.99447,-3.34319 3.28663,-4.635379 1.34835,-1.292191 2.66797,-2.49981 3.96014,-3.623459 1.29216,-1.123649 2.35971,-2.219237 3.20244,-3.286697 0.89889,-1.12365 1.34866,-2.359278 1.34866,-3.707649 0,-1.910199 -0.64581,-3.34188 -1.93797,-4.296971 -1.29217,-0.9551 -2.94953,-1.432881 -4.97205,-1.432881 -1.96633,0 -3.93341,0.280073 -5.89976,0.841901 -1.91015,0.561821 -3.9596,1.405346 -6.15067,2.528986 l -3.20245,-8.849818 c 2.19106,-1.404559 4.7743,-2.472138 7.75189,-3.202507 2.9776,-0.786551 5.90021,-1.178655 8.76546,-1.178655 z m -1.26448,45.338619 c 1.96634,0 3.76374,0.673827 5.39298,2.022197 1.62926,1.348378 2.44475,3.23148 2.44475,5.64731 0,2.47202 -0.81549,4.409485 -2.44475,5.814043 -1.62924,1.348371 -3.42664,2.022205 -5.39298,2.022205 -2.07869,0 -3.93375,-0.673834 -5.563,-2.022205 -1.57308,-1.404558 -2.35892,-3.342023 -2.35892,-5.814043 0,-2.41583 0.78584,-4.298932 2.35892,-5.64731 1.62925,-1.34837 3.48431,-2.022197 5.563,-2.022197 z" /><g
       id="g2"
       transform="matrix(8.8865879,0,0,8.8865879,9.140257,55.261193)"
       style="fill:#c5c4c5;fill-opacity:1"><g
         id="layer1"
         transform="translate(-159.03306,-12.056636)"
         style="fill:#c5c4c5;fill-opacity:1" /><path
         id="path16716"
         style="fill:#c5c4c5;fill-opacity:1;stroke:none;stroke-width:0.264583px;stroke-linecap:butt;stroke-linejoin:miter;stroke-opacity:1"
         d="m 17.283844,15.238746 c 0,0 1.57124,4.187857 3.43638,4.881028 1.45537,0.54088 4.50997,1.061836 4.51797,-1.133046 0.008,-2.194882 -0.538704,-6.969531 -1.53908,-10.7029864 -0.629082,-2.3477646 -3.86043,-6.2479859 -8.30274,-1.295951 0,0 -0.851084,-0.1321719 -2.696375,-0.1321719 -1.845291,0 -2.696375,0.1321719 -2.696375,0.1321719 C 5.5613142,2.0357557 2.2964182,5.8409074 1.7008842,8.2837416 0.78541654,12.038919 0.15390422,16.791846 0.16180422,18.986728 c 0.008,2.194882 3.06259998,1.673926 4.51796998,1.133046 1.86514,-0.693171 3.43638,-4.881028 3.43638,-4.881028 0,0 1.4125297,0.238056 4.5838448,0.238056 3.171315,0 4.583845,-0.238056 4.583845,-0.238056 z"
         sodipodi:nodetypes="cscsczcscsczc" /></g></g></svg>
