<?xml version="1.0" encoding="UTF-8" standalone="no"?>
<!-- Created with Inkscape (http://www.inkscape.org/) -->

<svg
   version="1.1"
   id="svg1"
   width="256"
   height="256"
   viewBox="0 0 256 256"
   sodipodi:docname="icon_settings_controller-rumble.svg"
   xml:space="preserve"
   inkscape:export-filename="icon_settings_controller-rumble.png"
   inkscape:export-xdpi="96"
   inkscape:export-ydpi="96"
   inkscape:version="1.4 (e7c3feb100, 2024-10-09)"
   xmlns:inkscape="http://www.inkscape.org/namespaces/inkscape"
   xmlns:sodipodi="http://sodipodi.sourceforge.net/DTD/sodipodi-0.dtd"
   xmlns="http://www.w3.org/2000/svg"
   xmlns:svg="http://www.w3.org/2000/svg"><defs
     id="defs1"><inkscape:path-effect
       effect="spiro"
       id="path-effect3501"
       is_visible="true"
       lpeversion="1" /><inkscape:path-effect
       effect="spiro"
       id="path-effect891"
       is_visible="true"
       lpeversion="1" /></defs><sodipodi:namedview
     id="namedview1"
     pagecolor="#ffffff"
     bordercolor="#000000"
     borderopacity="0.25"
     inkscape:showpageshadow="2"
     inkscape:pageopacity="0.0"
     inkscape:pagecheckerboard="0"
     inkscape:deskcolor="#d1d1d1"
     inkscape:zoom="1.9492188"
     inkscape:cx="115.43086"
     inkscape:cy="129.53908"
     inkscape:window-width="1854"
     inkscape:window-height="1011"
     inkscape:window-x="1986"
     inkscape:window-y="32"
     inkscape:window-maximized="1"
     inkscape:current-layer="g1" /><g
     inkscape:groupmode="layer"
     inkscape:label="Image"
     id="g1"><g
       id="g2"
       transform="matrix(8.8865879,0,0,8.8865879,15.140257,17.261193)"
       style="fill:#c5c4c5;fill-opacity:1"><g
         id="layer1"
         transform="translate(-159.03306,-12.056636)"
         style="fill:#c5c4c5;fill-opacity:1" /><path
         id="path16716"
         style="fill:#c5c4c5;fill-opacity:1;stroke:none;stroke-width:0.264583px;stroke-linecap:butt;stroke-linejoin:miter;stroke-opacity:1"
         d="m 17.283844,15.238746 c 0,0 1.57124,4.187857 3.43638,4.881028 1.45537,0.54088 4.50997,1.061836 4.51797,-1.133046 0.008,-2.194882 -0.538704,-6.969531 -1.53908,-10.7029864 -0.629082,-2.3477646 -3.86043,-6.2479859 -8.30274,-1.295951 0,0 -0.851084,-0.1321719 -2.696375,-0.1321719 -1.845291,0 -2.696375,0.1321719 -2.696375,0.1321719 C 5.5613142,2.0357557 2.2964182,5.8409074 1.7008842,8.2837416 0.78541654,12.038919 0.15390422,16.791846 0.16180422,18.986728 c 0.008,2.194882 3.06259998,1.673926 4.51796998,1.133046 1.86514,-0.693171 3.43638,-4.881028 3.43638,-4.881028 0,0 1.4125297,0.238056 4.5838448,0.238056 3.171315,0 4.583845,-0.238056 4.583845,-0.238056 z"
         sodipodi:nodetypes="cscsczcscsczc" /></g><path
       style="fill:#000000;fill-opacity:0;stroke:#c5c4c5;stroke-width:5.51881;stroke-linecap:round;stroke-dasharray:none;stroke-opacity:1"
       d="M 93.339369,59.929257 C 63.224636,37.178849 22.167196,58.453512 19.443662,100.39595"
       id="path2"
       sodipodi:nodetypes="cc" /><path
       style="fill:#000000;fill-opacity:0;stroke:#c5c4c5;stroke-width:5.51881;stroke-linecap:round;stroke-dasharray:none;stroke-opacity:1"
       d="M 101.53465,48.883442 C 79.673433,34.150586 17.046173,21.379846 5.2422902,99.574815"
       id="path3"
       sodipodi:nodetypes="cc" /><path
       style="fill:#000000;fill-opacity:0;stroke:#c5c4c5;stroke-width:5.51881;stroke-linecap:round;stroke-dasharray:none;stroke-opacity:1"
       d="m 162.66125,59.929256 c 30.11468,-22.750409 71.17206,-1.475745 73.89559,40.466694"
       id="path4"
       sodipodi:nodetypes="cc" /><path
       style="fill:#000000;fill-opacity:0;stroke:#c5c4c5;stroke-width:5.51881;stroke-linecap:round;stroke-dasharray:none;stroke-opacity:1"
       d="m 154.46598,48.883441 c 21.86118,-14.732857 84.48835,-27.503598 96.29221,50.691374"
       id="path5"
       sodipodi:nodetypes="cc" /></g></svg>
