<?xml version="1.0" encoding="UTF-8" standalone="no"?>
<!-- Created with Inkscape (http://www.inkscape.org/) -->

<svg
   version="1.1"
   id="svg1"
   width="128"
   height="128"
   viewBox="0 0 128 128"
   sodipodi:docname="icon_category_application.svg"
   inkscape:version="1.4.2 (ebf0e940d0, 2025-05-08)"
   inkscape:export-filename="icon_category_application.png"
   inkscape:export-xdpi="192"
   inkscape:export-ydpi="192"
   xml:space="preserve"
   xmlns:inkscape="http://www.inkscape.org/namespaces/inkscape"
   xmlns:sodipodi="http://sodipodi.sourceforge.net/DTD/sodipodi-0.dtd"
   xmlns="http://www.w3.org/2000/svg"
   xmlns:svg="http://www.w3.org/2000/svg"><defs
     id="defs1" /><sodipodi:namedview
     id="namedview1"
     pagecolor="#ffffff"
     bordercolor="#000000"
     borderopacity="0.25"
     inkscape:showpageshadow="2"
     inkscape:pageopacity="0.0"
     inkscape:pagecheckerboard="0"
     inkscape:deskcolor="#d1d1d1"
     inkscape:zoom="1.9681566"
     inkscape:cx="28.961111"
     inkscape:cy="93.234453"
     inkscape:window-width="1854"
     inkscape:window-height="1011"
     inkscape:window-x="1986"
     inkscape:window-y="32"
     inkscape:window-maximized="1"
     inkscape:current-layer="g1" /><g
     inkscape:groupmode="layer"
     inkscape:label="Image"
     id="g1"><path
       id="rect1"
       style="fill:none;stroke:#c5c4c5;stroke-width:5.48232;stroke-linejoin:round"
       d="m 82.274412,18.313969 v 22.843015 h 22.843018 m 0,0 v 63.960446 c 0,2.531 -2.0376,4.5686 -4.56861,4.5686 H 27.451175 c -2.531006,0 -4.568603,-2.0376 -4.568603,-4.5686 V 22.882572 c 0,-2.531006 2.037597,-4.568603 4.568603,-4.568603 h 54.823237 z"
       sodipodi:nodetypes="ccccsssssscc" /><path
       style="fill:#c5c4c5;fill-opacity:1;stroke-width:0.484761"
       d="m 58.905637,99.68747 -1.207523,-3.747901 -2.771839,-1.16792 -2.771839,-1.167925 -3.418635,1.796445 -3.418635,1.796434 -2.777594,-2.686263 -2.777596,-2.686265 1.837672,-3.526 1.837671,-3.526003 -1.18556,-2.908562 -1.185562,-2.908563 -3.560673,-1.016083 -3.560674,-1.016077 v -4.027346 -4.027343 l 3.615916,-1.025912 3.615916,-1.025913 1.209809,-2.834881 1.209806,-2.834881 -1.776787,-3.248951 -1.776786,-3.248952 2.840981,-2.811339 2.840983,-2.811337 3.303291,1.754054 3.303291,1.754055 2.804742,-1.087563 c 2.748377,-1.065707 2.819655,-1.14119 3.546759,-3.756163 1.40688,-5.059729 1.170173,-4.850022 5.474498,-4.850022 h 3.813756 l 1.06023,3.648887 1.060228,3.648887 2.768613,1.224412 2.768612,1.224411 3.528773,-1.843546 3.52877,-1.843546 2.686265,2.777596 2.686266,2.777595 -1.789149,3.404762 -1.789154,3.404761 1.202643,2.784738 1.202637,2.784739 3.584689,1.017055 3.584697,1.017054 v 4.036743 4.036735 l -3.635701,1.117427 -3.635703,1.117426 -1.054063,2.742672 -1.054063,2.742674 1.769496,3.576098 1.769502,3.576099 -2.722564,2.722568 -2.722569,2.722562 -3.404886,-1.839048 -3.404887,-1.839064 -2.828911,1.206522 -2.828911,1.206519 -1.18414,3.720658 -1.184141,3.720671 H 64.023382 60.11316 Z m 2.273145,-12.536364 c 1.338429,-1.754771 3.284706,-1.924017 4.122549,-0.358492 0.871968,1.629286 1.651749,1.819874 3.919874,0.958048 2.423481,-0.920848 2.656237,-1.232198 2.663951,-3.563481 0.007,-2.134223 0.596275,-2.766153 2.267511,-2.431907 2.128794,0.425759 3.004591,-0.05663 3.905664,-2.151225 1.089519,-2.532654 1.061444,-2.759461 -0.5328,-4.304665 -0.748018,-0.725007 -1.360033,-1.612864 -1.360033,-1.973013 0,-0.360148 0.612015,-1.121618 1.360033,-1.69216 1.52853,-1.165868 1.639455,-1.813414 0.718728,-4.195729 -0.884679,-2.289037 -1.039611,-2.40364 -3.552046,-2.627463 L 72.473978,64.613407 V 62.28192 59.950434 l -1.733806,-0.874308 c -2.356321,-1.188224 -3.521227,-1.118541 -4.872072,0.291437 -1.451823,1.515376 -2.321982,1.47084 -3.796177,-0.194291 -1.427527,-1.612418 -1.792041,-1.645321 -4.46117,-0.402662 l -2.04005,0.94978 v 1.913203 c 0,2.411375 -0.593531,2.969588 -2.831337,2.662863 -2.058924,-0.282207 -2.377164,-0.08542 -3.357755,2.07634 -1.05422,2.324074 -1.022766,2.568755 0.554667,4.314785 1.899315,2.102316 1.822855,2.488748 -0.934595,4.72359 -0.957834,0.7763 -0.897617,1.296753 0.481625,4.162604 0.830498,1.72565 0.867066,1.748681 2.784456,1.753647 2.636947,0.0069 3.026859,0.316282 2.716099,2.155654 -0.386144,2.28557 0.04617,3.058958 2.276878,4.07324 2.622813,1.192567 2.705913,1.183973 3.918041,-0.40521 z"
       id="path1"
       sodipodi:nodetypes="ccccccccccccccccccccccccccsssccccccccccccccccccccccccccccccccccssscssssssscccsssscsssssscsss" /></g></svg>
